<?xml version="1.0" encoding="UTF-8"?>
<svg id="Layer_1" xmlns="http://www.w3.org/2000/svg" version="1.1" viewBox="0 0 503.7 354.6">
  <!-- Generator: Adobe Illustrator 30.6.0, SVG Export Plug-In . SVG Version: 2.1.4 Build 109)  -->
  <defs>
    <style>
      .st0 {
        fill: #666;
      }

      .st1 {
        fill: #cf9;
      }
    </style>
  </defs>
  <g>
    <rect class="st1" x="185.2" y="23.6" width="135.9" height="135.9" rx="21.8" ry="21.8"/>
    <g>
      <path d="M222.1,110.3c-15.4-5.1-23.8-21.4-22.1-37.7.9-8.7,7.3-19.9,10.1-16l12.4,17.9,1.6-10.1c.6-3.5-.3-7.6.4-11,1.4-6.2,16.4,6.2,21.6,25.7,1.4,5.2,1.2,10-1,14.8-4.6,9.8-11.9,20.2-23.1,16.5Z"/>
      <path d="M296.4,74.6c7.7,8.1,10.8,22.5,9.9,33.6s-2.2,8.3-5,11.5-6.3,7.1-10.5,9.5c-5.7,3.2-12.4,2.8-17.5-1.4-6.1-5.1-10.6-12-11.6-20.1-1.8-14.3,1.3-26.1,13.1-35,.8-.6,2.4.8,2.7,1.6l7.3,20.4c1.8-4,3.4-7.3,4.7-11,1-2.9,1.2-9.5,4.2-10s2.3.5,2.8,1Z"/>
    </g>
  </g>
  <g>
    <path d="M53.4,226.7h-23.3v-19h68.5v19h-23.5v59.2h-21.7v-59.2Z"/>
    <path d="M105.2,207.7h37c12,0,20.2,3.1,25.5,8.4,4.6,4.6,6.9,10.5,6.9,18.2v.2c0,12.1-6.4,20-16.1,24.1l18.7,27.2h-24.9l-15.7-23.7h-9.6v23.7h-21.7v-78.2ZM141.3,245.2c7.3,0,11.6-3.6,11.6-9.3v-.2c0-6.3-4.6-9.4-11.7-9.4h-14.3v18.9h14.4Z"/>
    <path d="M208.3,207.1h20.9l33.3,78.7h-23.2l-5.6-14.1h-30.3l-5.6,14.1h-22.7l33.2-78.7ZM227.3,254.9l-8.7-22.1-8.8,22.1h17.5Z"/>
    <path d="M259.7,247v-.2c0-22.8,17.4-40.7,41.1-40.7s26.2,6.7,33.2,16.2l-16.3,12.6c-4.5-5.5-9.6-9.2-17.1-9.2-10.9,0-18.7,9.4-18.7,20.8v.2c0,11.7,7.7,20.9,18.7,20.9s13-3.8,17.6-9.5l16.3,11.6c-7.4,10.2-17.3,17.6-34.5,17.6s-40.3-17.1-40.3-40.4Z"/>
    <path d="M341.1,207.7h62.9v18.3h-41.4v12h37.5v17.1h-37.5v12.4h42v18.4h-63.4v-78.2Z"/>
    <path d="M407,274.3l12.1-14.4c7.8,6.1,16.3,9.4,25.4,9.4s9-2,9-5.4v-.2c0-3.3-2.6-5-13.3-7.6-16.6-3.8-29.5-8.5-29.5-24.5v-.2c0-14.5,11.5-25,30.3-25s23.7,3.6,32.2,10.4l-10.8,15.3c-7.1-5.1-15-7.7-21.9-7.7s-7.8,2.1-7.8,5v.2c0,3.6,2.7,5.1,13.6,7.6,17.9,3.9,29,9.7,29,24.3v.2c0,16-12.6,25.5-31.6,25.5s-26.9-4.4-36.6-13Z"/>
  </g>
  <g>
    <path class="st0" d="M97.8,309.4v5.9h-1.2c0-1.1,0-2-.2-2.7-.2-.7-.5-1.3-1-1.6-.5-.4-1.2-.5-2.2-.5h-2.4s-.9,15.1-.9,15.1c0,.5,0,.9,0,1.3,0,.4,0,.7-.1.9.3,0,.5,0,.8,0,.3,0,.5,0,.8,0s.5,0,.8,0v1.2h-6.5v-.9c.7,0,1.1-.2,1.4-.5.3-.3.4-.7.5-1.2s.2-1.1.2-1.7l.9-14.1h-2.9c-1.2,0-2,.4-2.5,1.2-.5.8-.8,2-.9,3.6h-1l.5-5.9h16.1Z"/>
    <path class="st0" d="M103.5,328.8c0-.1,0-.2,0-.3v-.4c0-.3,0-.7,0-1.1,0-.4,0-1,.1-1.7,0-.7.2-1.7.3-2.8.1-1.2.2-2.1.3-2.7,0-.6.1-1.1.2-1.3,0-.3,0-.5,0-.7,0-.4,0-.7,0-1.1,0-.4-.3-.5-.7-.5s-.6.2-1,.6c-.4.4-.7,1.1-1,2.1l-.8-.2c0-.3.2-.7.3-1.2.2-.4.4-.9.7-1.3.3-.4.7-.8,1.1-1.1.4-.3.9-.4,1.5-.4.8,0,1.4.3,1.7.9.3.6.4,1.3.4,2.3,0,.4,0,.9-.2,1.3,0,.5-.2,1-.3,1.5h0c.5-1.6,1.1-2.9,1.7-3.7.6-.9,1.2-1.5,1.8-1.8s1.2-.5,1.8-.5,1,.1,1.4.4.6.7.6,1.2-.1.6-.3.9c-.2.3-.5.4-.9.4s-.6-.1-.9-.3c-.2-.2-.4-.5-.4-.9-.5-.1-1,0-1.5.5-.5.4-1,1.1-1.4,1.9-.4.8-.8,1.7-1.1,2.8-.3,1-.6,2.1-.8,3.1-.2,1.1-.3,2-.3,2.9s0,.5,0,.6c0,.1,0,.3,0,.6h-2.3Z"/>
    <path class="st0" d="M124.8,314.6c.6,0,1.2,0,1.8.1.7,0,1.3.2,1.9.3-.1,1.1-.3,2.2-.4,3.3s-.3,2.1-.4,3.1c-.1,1-.2,1.9-.3,2.7s-.1,1.4-.1,1.8,0,.7,0,1.1c0,.4.3.6.7.6s.7-.2,1-.6c.4-.4.7-1.1,1-2.1l.8.2c0,.3-.2.7-.3,1.2-.2.4-.4.9-.7,1.3-.3.4-.7.8-1.1,1.1-.4.3-.9.4-1.5.4s-1.3-.2-1.6-.7c-.3-.5-.5-1.1-.5-1.8s0-1.1.2-1.8c.1-.6.2-1.3.3-2h0c-.4,1.4-.9,2.5-1.4,3.3-.5.8-.9,1.4-1.4,1.9-.5.4-.9.7-1.4.8-.4.1-.9.2-1.2.2-1,0-1.8-.4-2.5-1.1-.7-.7-1-2-1-3.7s.2-2.5.5-3.7c.3-1.2.8-2.2,1.5-3.1.7-.9,1.5-1.6,2.5-2.1,1-.5,2.2-.8,3.6-.8ZM123.9,315.6c-.8,0-1.6.2-2.2.7-.6.5-1.1,1.1-1.5,1.9s-.7,1.7-.9,2.6c-.2,1-.3,2-.3,3s.1,2.2.4,2.9c.3.8.7,1.2,1.4,1.2s1-.2,1.5-.8c.5-.5,1-1.2,1.4-2,.4-.8.8-1.8,1.2-2.8.4-1,.6-2.1.8-3.2s.3-2.1.3-3.1c-.3-.1-.6-.2-1-.2-.4,0-.8,0-1.2,0Z"/>
    <path class="st0" d="M141.4,314.6c.8,0,1.5.1,2.1.4.6.3,1.1.7,1.5,1.2.4.5.5,1,.5,1.7s-.1.7-.3,1-.5.4-.9.4c-.4,0-.8-.1-.9-.4-.2-.3-.3-.5-.3-.7s0-.3,0-.5c0-.2.1-.4.3-.5,0-.5-.3-.9-.8-1.1s-.9-.3-1.4-.3c-.8,0-1.5.2-2,.6-.5.4-1,1-1.3,1.7-.3.7-.5,1.4-.7,2.2s-.2,1.6-.2,2.3c0,1.3.1,2.3.4,3.1.3.8.7,1.4,1.2,1.7.5.4,1.1.5,1.8.5s1-.1,1.5-.3,1-.6,1.5-1.1c.5-.5.9-1.2,1.2-2.1l1,.5c-.5,1.1-1,1.9-1.6,2.6-.6.6-1.3,1.1-2,1.4s-1.4.4-2.1.4c-1.6,0-2.9-.5-3.9-1.5-1-1-1.5-2.5-1.5-4.6s.1-1.9.4-2.8c.3-1,.7-1.9,1.2-2.7.5-.8,1.2-1.5,2.1-2.1.8-.5,1.8-.8,3-.8Z"/>
    <path class="st0" d="M160.3,329.1c-.7,0-1.3-.3-1.8-.9-.5-.6-.9-1.5-1.4-2.8-.4-.9-.7-1.6-.9-2-.3-.4-.7-.6-1.2-.6-.1,0-.2,0-.4,0-.1,0-.2,0-.4,0-.2.8-.4,1.5-.5,2.3-.1.8-.2,1.5-.2,2.2s0,.5,0,.8,0,.5,0,.7h-2.3c0-.1,0-.2,0-.3v-.4c0-.5,0-1.3,0-2.3,0-1,.1-2.2.2-3.5,0-1.3.2-2.7.3-4.1.1-1.4.2-2.7.4-4,.1-1.3.3-2.3.4-3.2,0-.5.1-.8.2-.9,0-.1,0-.3,0-.6-.3,0-.6,0-1,0-.3,0-.7,0-1,0v-1.1c.9,0,1.6,0,2-.1s.8-.2,1-.3c.2-.1.4-.2.6-.4h.8c0,.5-.2,1-.3,1.6,0,.6-.2,1.1-.2,1.7s-.1,1-.2,1.5c-.2,1.3-.3,2.6-.5,4.1s-.3,2.8-.3,4.2h0c.6-1.6,1.1-2.9,1.7-3.8.6-.9,1.2-1.5,1.8-1.9.6-.4,1.3-.5,1.9-.5s1.2.1,1.6.4c.4.3.7.7.9,1.1s.3.9.3,1.4-.2,1.3-.6,2c-.4.7-1,1.3-1.8,1.9s-1.8.9-3,1.2h0c.6,0,1.1.2,1.5.5s.7.8,1,1.5c.2.4.4.9.6,1.3s.4.8.6,1.1c.2.3.5.5.7.5.3,0,.6,0,.8-.3.2-.2.4-.7.6-1.4h.8c-.1.7-.3,1.2-.5,1.6s-.6.9-1,1.2c-.4.3-.9.5-1.5.5ZM154.4,322.1c1.8,0,3.1-.4,4-1.1.9-.8,1.4-1.8,1.4-3.2s0-.5,0-.8c0-.3-.2-.5-.4-.7-.2-.2-.5-.3-.9-.2-.5,0-1,.3-1.5.9-.5.6-1,1.3-1.4,2.2-.4.9-.8,1.9-1.2,3Z"/>
    <path class="st0" d="M169.7,325.8c.4,0,.8.2,1.1.5.3.3.4.8.4,1.2,0,.5-.2.9-.5,1.2-.3.3-.7.5-1.1.5s-.8-.2-1.1-.5c-.3-.3-.4-.8-.4-1.2,0-.5.2-.9.6-1.2s.7-.5,1.2-.5Z"/>
    <path class="st0" d="M194.4,309.3c2.1,0,3.8.4,4.9,1.1,1.1.8,1.7,2,1.5,3.6,0,.6-.2,1.2-.6,1.8-.4.6-.9,1.1-1.6,1.6-.7.5-1.5.8-2.6,1h0c2,0,3.5.5,4.5,1.5,1,.9,1.4,2.1,1.3,3.5,0,1.1-.4,2.1-1,2.9-.6.8-1.4,1.4-2.4,1.9-1,.4-2.1.7-3.4.7h-8v-.9c.8,0,1.2-.2,1.5-.5.3-.3.4-.7.5-1.2,0-.5.1-1.1.1-1.8l.6-11.7c0-.5,0-.9,0-1.3,0-.4,0-.7.1-.9-.3,0-.7,0-1,0s-.7,0-1,0v-1.2c1.1,0,2.1,0,3.1,0s2.1,0,3.2,0ZM194.8,319.2c-.6,0-1.1,0-1.5,0-.5,0-.9,0-1.3,0l-.3,6.3c0,.5,0,.9,0,1.3,0,.4,0,.6-.1.9.3,0,.7,0,1.1,0,.4,0,.8,0,1.2,0h.7c1.4,0,2.6-.4,3.5-1.1.9-.7,1.4-1.8,1.5-3.1,0-1.1-.1-2-.5-2.6-.4-.6-1-1.1-1.7-1.4-.7-.3-1.5-.4-2.3-.4ZM194.5,310.3c-.6,0-1,0-1.3.2-.3.2-.5.4-.6.8-.1.4-.2.9-.2,1.6l-.3,5.2c.4,0,.7,0,1.1,0,.4,0,.7,0,1,0,1.1,0,1.9-.3,2.5-.7.6-.4,1.1-.9,1.4-1.5.3-.6.5-1.3.5-2,0-1-.1-1.8-.6-2.3s-.9-.9-1.5-1.1-1.2-.3-1.8-.3Z"/>
    <path class="st0" d="M211.9,329.1c-.7,0-1.3-.2-1.8-.5-.4-.3-.8-.8-1-1.3s-.3-1.1-.3-1.8c0-1,0-2.1.2-3.1.1-1.1.3-2,.4-2.9.1-.9.2-1.6.2-2.1s0-.7-.1-.9c0-.3-.3-.4-.6-.4s-.6.2-1,.6c-.4.4-.7,1.1-1,2.1l-.8-.2c0-.3.2-.7.3-1.2.2-.4.4-.9.7-1.3.3-.4.6-.8,1.1-1.1.4-.3.9-.4,1.5-.4s1.3.2,1.7.7c.4.5.6,1.1.6,2s0,1.2-.1,1.9-.2,1.6-.3,2.4-.2,1.6-.3,2.4c0,.8-.1,1.5-.1,2.1s0,.4,0,.7c0,.3.2.5.4.7.2.2.5.3.8.3.5,0,1-.2,1.5-.7.5-.5,1-1.1,1.4-1.9.4-.8.8-1.7,1.2-2.7.4-1,.6-2,.8-3.1.2-1,.3-2,.3-3s0-.5,0-.8c0-.2,0-.5,0-.7h2.3c0,.1,0,.2,0,.3v.4c0,.3,0,.7,0,1.1,0,.4,0,1-.2,1.7,0,.7-.2,1.7-.3,2.8-.1,1.1-.2,1.9-.3,2.5,0,.6-.1,1.1-.2,1.4s0,.5,0,.7c0,.2,0,.4,0,.6,0,.3,0,.6.2.9.1.2.3.4.6.4s.7-.2,1-.6c.4-.4.7-1.1,1-2.1l.8.2c0,.3-.2.7-.3,1.2-.2.4-.4.9-.7,1.3-.3.4-.7.8-1.1,1.1-.4.3-.9.4-1.5.4s-1.3-.2-1.6-.7-.5-1.1-.5-1.8,0-1.1.2-1.8c.1-.6.2-1.3.3-2h0c-.6,1.7-1.2,3-1.8,3.9-.6.9-1.1,1.5-1.7,1.8s-1.1.5-1.8.5Z"/>
    <path class="st0" d="M230.1,329.1c-.9,0-1.6-.2-2.1-.7-.6-.5-1-1.1-1.2-1.9s-.4-1.7-.4-2.7c0-1.8.3-3.4.9-4.8.6-1.4,1.5-2.5,2.7-3.2s2.7-1.2,4.5-1.2.5,0,.8,0c.3,0,.5,0,.8,0,0-.7.2-1.3.2-2,0-.7.2-1.3.2-1.9,0-.6.2-1,.2-1.3-.3,0-.7,0-1,0s-.7,0-1,0v-1.1c.9,0,1.6,0,2-.1.5,0,.8-.2,1-.3.2-.1.4-.2.6-.4h.8c-.2,1-.3,2.2-.5,3.7-.2,1.4-.4,3.3-.7,5.5-.1,1.2-.3,2.4-.4,3.5-.1,1.2-.2,2.3-.3,3.3s-.1,1.8-.1,2.5,0,.7.1,1c0,.3.3.5.6.5s.7-.2,1-.6c.4-.4.7-1.1,1-2.1l.8.2c0,.3-.2.7-.3,1.2-.2.4-.4.9-.7,1.3-.3.4-.7.8-1.1,1.1-.4.3-.9.4-1.5.4s-1.3-.2-1.6-.7c-.3-.5-.5-1.1-.5-1.8s0-1.1.1-1.7c0-.6.2-1.2.3-1.9h0c-.5,1.7-1.1,3-1.7,3.8s-1.2,1.5-1.8,1.8c-.6.3-1.2.5-1.7.5ZM230.7,327.8c.6,0,1.2-.3,1.8-1s1.1-1.5,1.6-2.6c.5-1.1.9-2.2,1.1-3.4.1-.6.3-1.4.4-2.2.1-.8.2-1.7.3-2.7-.3-.1-.6-.2-.9-.2-.3,0-.6,0-1,0-.8,0-1.5.2-2,.5-.6.3-1.1.7-1.5,1.3-.4.5-.7,1.1-1,1.8s-.4,1.4-.5,2.1c-.1.7-.2,1.4-.2,2.1,0,1.3.1,2.3.4,3.2.3.9.8,1.3,1.5,1.3Z"/>
    <path class="st0" d="M248,336.4c-.3,0-.7,0-1.2-.1s-.9-.2-1.3-.4-.8-.4-1.1-.7c-.3-.3-.5-.7-.5-1.1,0-.3,0-.5.2-.7s.3-.4.5-.5c.2-.1.4-.2.7-.2s.6.1.9.3.4.5.4,1,0,.5-.2.7c.2.3.5.5.8.6.4.1.7.2,1.1.2,1.1,0,1.9-.3,2.5-.8.6-.6,1.1-1.3,1.4-2.2.3-.9.6-1.9.7-3,.2-1.1.3-2.2.4-3.3,0-1.1.2-2.2.3-3.1h0c-.4,1.3-.8,2.4-1.2,3.2s-.9,1.5-1.3,1.9c-.4.4-.9.7-1.3.9-.4.1-.9.2-1.3.2-.9,0-1.6-.2-2.1-.7-.6-.5-1-1.1-1.2-1.9-.3-.8-.4-1.7-.4-2.8s.2-2.3.5-3.4c.3-1.1.8-2.1,1.5-2.9s1.5-1.5,2.5-2c1-.5,2.2-.7,3.6-.7s1.3,0,1.9.1c.6,0,1.2.2,1.6.3,0,1.1-.2,2.2-.2,3.4,0,1.1-.2,2.3-.3,3.4s-.2,2.2-.3,3.3c0,1.1-.2,2.2-.3,3.2-.1,1.8-.5,3.3-1.1,4.4-.6,1.2-1.4,2-2.4,2.6-1,.6-2.2.9-3.6.9ZM248.9,327.8c.5,0,1-.3,1.5-.8.5-.5.9-1.2,1.4-2s.8-1.8,1.1-2.8c.3-1,.6-2.1.8-3.2.2-1.1.3-2.1.4-3-.2-.1-.5-.2-.8-.3s-.7,0-1,0c-1,0-1.9.2-2.6.7-.7.5-1.2,1.1-1.6,1.9-.4.8-.7,1.6-.9,2.5-.2.9-.3,1.7-.3,2.5s0,1.6.2,2.3c.1.7.3,1.2.6,1.6.3.4.7.6,1.2.6Z"/>
    <path class="st0" d="M268.5,314.6c.7,0,1.3.1,1.9.3.6.2,1.1.5,1.4,1,.4.5.6,1.1.6,1.9s-.3,1.4-.8,2-1.2,1-2,1.4c-.8.4-1.7.7-2.7.9-.9.2-1.9.4-2.7.5,0,1.1.1,2.1.3,2.9.2.8.6,1.4,1,1.8s1.1.6,1.8.6,1.1-.1,1.6-.4c.5-.2,1.1-.6,1.6-1.1.5-.5,1-1.1,1.4-1.9l.9.5c-.5,1-1.1,1.8-1.7,2.4-.6.6-1.2,1.1-1.9,1.4-.7.3-1.5.4-2.3.4-1.8,0-3.1-.6-3.9-1.7-.8-1.1-1.3-2.6-1.3-4.3s.1-2.1.4-3.1c.3-1,.7-1.9,1.2-2.7s1.3-1.4,2.1-1.9,1.8-.7,3-.7ZM268.1,315.6c-.9,0-1.6.3-2.1.9-.5.6-1,1.3-1.2,2.2-.3.9-.5,1.9-.5,2.9,1-.1,1.9-.4,2.8-.7.9-.3,1.6-.8,2.2-1.3.6-.5.9-1.1.9-1.8s-.2-1.1-.5-1.5c-.3-.4-.8-.6-1.5-.6Z"/>
    <path class="st0" d="M282.8,311l-.5,3.9h4.4v1.1c0,0-4.5,0-4.5,0,0,.8-.2,1.6-.3,2.4-.1.8-.2,1.6-.3,2.5,0,.8-.1,1.6-.2,2.3,0,.8,0,1.4,0,2s0,.7,0,1.1.2.7.3.9c.2.2.5.4.9.4s.4,0,.7-.1c.3,0,.6-.2.9-.5.3-.3.7-.7,1-1.3l.7.5c-.5.9-1.1,1.7-1.7,2.2-.6.5-1.4.7-2.3.7s-1.3-.2-1.7-.5c-.4-.3-.7-.7-.9-1.2-.2-.5-.3-1-.3-1.6s0-1.6,0-2.6.1-2.1.2-3.4c.1-1.2.2-2.5.4-3.8h-2.5s0-1.1,0-1.1c1.3,0,2.2-.3,2.8-1,.6-.7,1.1-1.6,1.4-2.9h1.1Z"/>
    <path class="st0" d="M292.5,325.8c.4,0,.8.2,1.1.5.3.3.4.8.4,1.2,0,.5-.2.9-.5,1.2-.3.3-.7.5-1.1.5s-.8-.2-1.1-.5c-.3-.3-.4-.8-.4-1.2,0-.5.2-.9.6-1.2s.7-.5,1.2-.5Z"/>
    <path class="st0" d="M316.5,329.3c-.7,0-1.5,0-2.4-.2s-1.7-.5-2.4-.9v1c0,0-1.4,0-1.4,0v-5.9h1.2c0,1.1.3,2.1.7,2.8.5.7,1.1,1.3,1.8,1.6.8.4,1.7.5,2.6.5s1.4-.1,2-.4c.6-.3,1.1-.6,1.6-1.2.4-.5.6-1.1.7-1.9,0-.9-.2-1.7-.7-2.3-.5-.6-1.1-1.1-1.9-1.5-.8-.4-1.6-.8-2.5-1.2-.9-.4-1.7-.8-2.4-1.3-.8-.5-1.4-1.1-1.9-1.8-.5-.7-.7-1.6-.6-2.6,0-.5.2-1,.3-1.6s.5-1.1,1-1.6,1-.9,1.8-1.3c.7-.3,1.7-.5,2.8-.5s1.5,0,2.3.3,1.7.6,2.4,1.1v-1.2c0,0,1.4,0,1.4,0l-.3,6.1h-1c0-.9-.2-1.7-.5-2.5-.3-.8-.8-1.4-1.5-1.9-.7-.5-1.6-.8-2.7-.8s-2.1.3-2.7,1-1,1.4-1.1,2.3c0,.7.1,1.3.5,1.8.4.5.8,1,1.5,1.3s1.3.7,2,1.1c.7.4,1.5.7,2.2,1.1.7.4,1.4.8,2,1.2.6.5,1.1,1,1.5,1.7s.5,1.5.4,2.4c0,1-.3,1.9-.9,2.7-.6.8-1.3,1.4-2.3,1.9-1,.4-2.2.7-3.6.7Z"/>
    <path class="st0" d="M333.2,329.1c-.7,0-1.3-.2-1.8-.5-.4-.3-.8-.8-1-1.3s-.3-1.1-.3-1.8c0-1,0-2.1.2-3.1.1-1.1.3-2,.4-2.9.1-.9.2-1.6.2-2.1s0-.7-.1-.9c0-.3-.3-.4-.6-.4s-.6.2-1,.6c-.4.4-.7,1.1-1,2.1l-.8-.2c0-.3.2-.7.3-1.2.2-.4.4-.9.7-1.3.3-.4.6-.8,1.1-1.1.4-.3.9-.4,1.5-.4s1.3.2,1.7.7c.4.5.6,1.1.6,2s0,1.2-.1,1.9-.2,1.6-.3,2.4-.2,1.6-.3,2.4c0,.8-.1,1.5-.1,2.1s0,.4,0,.7c0,.3.2.5.4.7.2.2.5.3.8.3.5,0,1-.2,1.5-.7.5-.5,1-1.1,1.4-1.9.4-.8.8-1.7,1.2-2.7.4-1,.6-2,.8-3.1.2-1,.3-2,.3-3s0-.5,0-.8c0-.2,0-.5,0-.7h2.3c0,.1,0,.2,0,.3v.4c0,.3,0,.7,0,1.1,0,.4,0,1-.2,1.7,0,.7-.2,1.7-.3,2.8-.1,1.1-.2,1.9-.3,2.5,0,.6-.1,1.1-.2,1.4s0,.5,0,.7c0,.2,0,.4,0,.6,0,.3,0,.6.2.9.1.2.3.4.6.4s.7-.2,1-.6c.4-.4.7-1.1,1-2.1l.8.2c0,.3-.2.7-.3,1.2-.2.4-.4.9-.7,1.3-.3.4-.7.8-1.1,1.1-.4.3-.9.4-1.5.4s-1.3-.2-1.6-.7-.5-1.1-.5-1.8,0-1.1.2-1.8c.1-.6.2-1.3.3-2h0c-.6,1.7-1.2,3-1.8,3.9-.6.9-1.1,1.5-1.7,1.8s-1.1.5-1.8.5Z"/>
    <path class="st0" d="M354.4,314.6c.8,0,1.5.1,2.1.4.6.3,1.1.7,1.5,1.2.4.5.5,1,.5,1.7s-.1.7-.3,1-.5.4-.9.4c-.4,0-.8-.1-.9-.4-.2-.3-.3-.5-.3-.7s0-.3,0-.5c0-.2.1-.4.3-.5,0-.5-.3-.9-.8-1.1s-.9-.3-1.4-.3c-.8,0-1.5.2-2,.6-.5.4-1,1-1.3,1.7-.3.7-.5,1.4-.7,2.2s-.2,1.6-.2,2.3c0,1.3.1,2.3.4,3.1.3.8.7,1.4,1.2,1.7.5.4,1.1.5,1.8.5s1-.1,1.5-.3,1-.6,1.5-1.1c.5-.5.9-1.2,1.2-2.1l1,.5c-.5,1.1-1,1.9-1.6,2.6-.6.6-1.3,1.1-2,1.4s-1.4.4-2.1.4c-1.6,0-2.9-.5-3.9-1.5-1-1-1.5-2.5-1.5-4.6s.1-1.9.4-2.8c.3-1,.7-1.9,1.2-2.7.5-.8,1.2-1.5,2.1-2.1.8-.5,1.8-.8,3-.8Z"/>
    <path class="st0" d="M370.3,314.6c.8,0,1.5.1,2.1.4.6.3,1.1.7,1.5,1.2.4.5.5,1,.5,1.7s-.1.7-.3,1-.5.4-.9.4c-.4,0-.8-.1-.9-.4-.2-.3-.3-.5-.3-.7s0-.3,0-.5c0-.2.1-.4.3-.5,0-.5-.3-.9-.8-1.1s-.9-.3-1.4-.3c-.8,0-1.5.2-2,.6-.5.4-1,1-1.3,1.7-.3.7-.5,1.4-.7,2.2s-.2,1.6-.2,2.3c0,1.3.1,2.3.4,3.1.3.8.7,1.4,1.2,1.7.5.4,1.1.5,1.8.5s1-.1,1.5-.3,1-.6,1.5-1.1c.5-.5.9-1.2,1.2-2.1l1,.5c-.5,1.1-1,1.9-1.6,2.6-.6.6-1.3,1.1-2,1.4s-1.4.4-2.1.4c-1.6,0-2.9-.5-3.9-1.5-1-1-1.5-2.5-1.5-4.6s.1-1.9.4-2.8c.3-1,.7-1.9,1.2-2.7.5-.8,1.2-1.5,2.1-2.1.8-.5,1.8-.8,3-.8Z"/>
    <path class="st0" d="M386.4,314.6c.7,0,1.3.1,1.9.3.6.2,1.1.5,1.4,1,.4.5.6,1.1.6,1.9s-.3,1.4-.8,2-1.2,1-2,1.4c-.8.4-1.7.7-2.7.9-.9.2-1.9.4-2.7.5,0,1.1.1,2.1.3,2.9.2.8.6,1.4,1,1.8s1.1.6,1.8.6,1.1-.1,1.6-.4c.5-.2,1.1-.6,1.6-1.1.5-.5,1-1.1,1.4-1.9l.9.5c-.5,1-1.1,1.8-1.7,2.4-.6.6-1.2,1.1-1.9,1.4-.7.3-1.5.4-2.3.4-1.8,0-3.1-.6-3.9-1.7-.8-1.1-1.3-2.6-1.3-4.3s.1-2.1.4-3.1c.3-1,.7-1.9,1.2-2.7s1.3-1.4,2.1-1.9,1.8-.7,3-.7ZM386,315.6c-.9,0-1.6.3-2.1.9-.5.6-1,1.3-1.2,2.2-.3.9-.5,1.9-.5,2.9,1-.1,1.9-.4,2.8-.7.9-.3,1.6-.8,2.2-1.3.6-.5.9-1.1.9-1.8s-.2-1.1-.5-1.5c-.3-.4-.8-.6-1.5-.6Z"/>
    <path class="st0" d="M402.4,314.6c.7,0,1.3.1,1.9.3.6.2,1.1.5,1.4,1,.4.5.6,1.1.6,1.9s-.3,1.4-.8,2-1.2,1-2,1.4c-.8.4-1.7.7-2.7.9-.9.2-1.9.4-2.7.5,0,1.1.1,2.1.3,2.9.2.8.6,1.4,1,1.8s1.1.6,1.8.6,1.1-.1,1.6-.4c.5-.2,1.1-.6,1.6-1.1.5-.5,1-1.1,1.4-1.9l.9.5c-.5,1-1.1,1.8-1.7,2.4-.6.6-1.2,1.1-1.9,1.4-.7.3-1.5.4-2.3.4-1.8,0-3.1-.6-3.9-1.7-.8-1.1-1.3-2.6-1.3-4.3s.1-2.1.4-3.1c.3-1,.7-1.9,1.2-2.7s1.3-1.4,2.1-1.9,1.8-.7,3-.7ZM402,315.6c-.9,0-1.6.3-2.1.9-.5.6-1,1.3-1.2,2.2-.3.9-.5,1.9-.5,2.9,1-.1,1.9-.4,2.8-.7.9-.3,1.6-.8,2.2-1.3.6-.5.9-1.1.9-1.8s-.2-1.1-.5-1.5c-.3-.4-.8-.6-1.5-.6Z"/>
    <path class="st0" d="M415.4,329.1c-.9,0-1.6-.2-2.1-.7-.6-.5-1-1.1-1.2-1.9s-.4-1.7-.4-2.7c0-1.8.3-3.4.9-4.8.6-1.4,1.5-2.5,2.7-3.2s2.7-1.2,4.5-1.2.5,0,.8,0c.3,0,.5,0,.8,0,0-.7.2-1.3.2-2,0-.7.2-1.3.2-1.9,0-.6.2-1,.2-1.3-.3,0-.7,0-1,0s-.7,0-1,0v-1.1c.9,0,1.6,0,2-.1.5,0,.8-.2,1-.3.2-.1.4-.2.6-.4h.8c-.2,1-.3,2.2-.5,3.7-.2,1.4-.4,3.3-.7,5.5-.1,1.2-.3,2.4-.4,3.5-.1,1.2-.2,2.3-.3,3.3s-.1,1.8-.1,2.5,0,.7.1,1c0,.3.3.5.6.5s.7-.2,1-.6c.4-.4.7-1.1,1-2.1l.8.2c0,.3-.2.7-.3,1.2-.2.4-.4.9-.7,1.3-.3.4-.7.8-1.1,1.1-.4.3-.9.4-1.5.4s-1.3-.2-1.6-.7c-.3-.5-.5-1.1-.5-1.8s0-1.1.1-1.7c0-.6.2-1.2.3-1.9h0c-.5,1.7-1.1,3-1.7,3.8s-1.2,1.5-1.8,1.8c-.6.3-1.2.5-1.7.5ZM416,327.8c.6,0,1.2-.3,1.8-1s1.1-1.5,1.6-2.6c.5-1.1.9-2.2,1.1-3.4.1-.6.3-1.4.4-2.2.1-.8.2-1.7.3-2.7-.3-.1-.6-.2-.9-.2-.3,0-.6,0-1,0-.8,0-1.5.2-2,.5-.6.3-1.1.7-1.5,1.3-.4.5-.7,1.1-1,1.8s-.4,1.4-.5,2.1c-.1.7-.2,1.4-.2,2.1,0,1.3.1,2.3.4,3.2.3.9.8,1.3,1.5,1.3Z"/>
  </g>
</svg>