<?xml version="1.0" encoding="UTF-8"?>
<svg id="Layer_1" xmlns="http://www.w3.org/2000/svg" version="1.1" viewBox="0 0 500 500">
  <!-- Generator: Adobe Illustrator 30.6.0, SVG Export Plug-In . SVG Version: 2.1.4 Build 109)  -->
  <defs>
    <style>
      .st0 {
        fill: #cf9;
      }
    </style>
  </defs>
  <rect class="st0" x="4.2" y="4.2" width="491.7" height="491.7" rx="78.8" ry="78.8"/>
  <g>
    <path d="M137.8,318.1c-55.8-18.4-86-77.6-80-136.5,3.2-31.3,26.6-72.1,36.4-57.9l45,64.7,5.9-36.6c2-12.5-1.3-27.5,1.6-39.8,5.2-22.5,59.3,22.4,78.3,92.9,5.1,18.7,4.5,36.2-3.5,53.4-16.5,35.5-43,73.2-83.6,59.8Z"/>
    <path d="M406.7,188.8c27.7,29.3,38.9,81.3,35.7,121.4-1.3,16.5-8,29.9-18.2,41.7-11.4,13.1-22.7,25.6-37.9,34.2-20.6,11.6-45,10.1-63.3-5.2-21.9-18.4-38.4-43.4-42.1-72.6-6.7-51.7,4.6-94.5,47.3-126.6,2.8-2.1,8.6,2.8,9.7,5.8l26.5,73.7c6.6-14.5,12.4-26.3,16.9-39.8s4.4-34.5,15.3-36.4c2.4-.4,8.2,1.7,10.1,3.7Z"/>
  </g>
</svg>